<?xml version="1.0" encoding="utf-8"?>
<!-- Generator: Adobe Illustrator 23.0.3, SVG Export Plug-In . SVG Version: 6.00 Build 0)  -->
<svg version="1.1" id="Vrstva_1" xmlns="http://www.w3.org/2000/svg" xmlns:xlink="http://www.w3.org/1999/xlink" x="0px" y="0px"
	 viewBox="0 0 238.11 138.9" style="enable-background:new 0 0 238.11 138.9;" xml:space="preserve">
<style type="text/css">
	.st0{fill:#FFFFFF;}
</style>
<g>
	<path class="st0" d="M120.01,14.08c2.58,0.23,5.36,0.35,8.11,0.74c7.97,1.13,15.48,3.58,22.19,8.13
		c5.63,3.82,10.1,8.71,13.12,14.86c1.63,3.32,2.7,6.82,3.28,10.47c0.72,4.55,0.75,9.1-0.02,13.62c-0.55,3.23-1.31,6.43-2.01,9.64
		c-0.71,3.22-1.46,6.44-2.22,9.65c-0.37,1.55-0.56,3.1-0.13,4.66c0.13,0.46,0.25,0.93,0.47,1.35c1.1,2.07,1.08,4.26,0.62,6.46
		c-0.5,2.37-1.51,4.52-3.15,6.33c-1.28,1.41-2.76,2.54-4.66,2.98c-0.51,0.12-1.05,0.14-1.58,0.11c-2.08-0.14-4.15,0-6.15,0.58
		c-2.1,0.61-3.46,2.06-4.11,4.15c-0.63,2.04-1.21,4.1-1.83,6.14c-0.5,1.64-1.64,2.82-2.94,3.86c-0.26,0.21-0.53,0.45-0.83,0.56
		c-0.92,0.34-1.42,0.99-1.71,1.9c-0.17,0.52-0.43,1-0.67,1.5c-0.46,0.98-1.21,1.54-2.31,1.58c-1.14,0.04-1.98-0.46-2.49-1.47
		c-0.29-0.57-0.51-1.16-0.8-1.73c-0.07-0.14-0.27-0.31-0.41-0.31c-0.14,0-0.34,0.16-0.41,0.3c-0.28,0.55-0.5,1.13-0.77,1.69
		c-0.48,0.97-1.24,1.51-2.35,1.53c-1.13,0.02-1.93-0.49-2.43-1.48c-0.27-0.54-0.48-1.1-0.76-1.63c-0.09-0.17-0.3-0.39-0.45-0.39
		c-0.16,0-0.35,0.23-0.45,0.4c-0.25,0.48-0.46,0.99-0.69,1.49c-0.47,1.03-1.25,1.59-2.4,1.61c-1.15,0.02-1.95-0.52-2.45-1.54
		c-0.26-0.54-0.48-1.1-0.75-1.64c-0.08-0.16-0.28-0.32-0.45-0.34c-0.12-0.01-0.31,0.18-0.39,0.33c-0.28,0.55-0.51,1.13-0.78,1.68
		c-0.49,1-1.29,1.51-2.41,1.5c-1.1-0.01-1.88-0.53-2.36-1.5c-0.27-0.55-0.5-1.13-0.78-1.68c-0.07-0.15-0.27-0.34-0.39-0.33
		c-0.16,0.02-0.36,0.19-0.44,0.34c-0.25,0.48-0.45,1-0.68,1.49c-0.47,1.04-1.24,1.65-2.42,1.68c-1.2,0.02-2.02-0.54-2.5-1.61
		c-0.38-0.84-0.71-1.69-1.1-2.52c-0.08-0.16-0.28-0.3-0.46-0.38c-1.71-0.85-3.13-2.04-4.04-3.71c-0.51-0.95-0.78-2.03-1.11-3.07
		c-0.46-1.46-0.83-2.96-1.33-4.41c-0.85-2.47-2.64-3.83-5.21-4.25c-1.76-0.29-3.51-0.38-5.28-0.28c-1.54,0.09-2.87-0.55-4.07-1.43
		c-2.78-2.02-4.34-4.82-5.05-8.14c-0.38-1.77-0.41-3.55,0.19-5.28c0.27-0.78,0.66-1.53,0.9-2.32c0.44-1.44,0.32-2.89-0.02-4.35
		c-1.19-5.09-2.39-10.17-3.54-15.27c-1.19-5.29-1.67-10.64-1.06-16.06c1.18-10.55,6.06-19.02,14.33-25.6
		c4.77-3.79,10.2-6.3,16.01-8.02c3.63-1.08,7.34-1.82,11.12-2.12C114.98,14.34,117.4,14.24,120.01,14.08z M153.17,75.59
		c0.04-2,0.05-4.44-0.69-6.8c-0.54-1.73-1.5-3.12-3.31-3.73c-1.22-0.41-2.49-0.32-3.73-0.16c-3.76,0.48-7.27,1.75-10.54,3.65
		c-2.55,1.48-4.85,3.26-6.4,5.83c-1.28,2.14-1.71,4.39-0.7,6.78c1.37,3.22,3.54,5.77,6.49,7.64c2.91,1.84,6.03,2.37,9.32,1.18
		c2.66-0.96,4.79-2.69,6.54-4.88c1.33-1.66,2.46-3.44,2.8-5.57C153.14,78.38,153.09,77.2,153.17,75.59z M98.44,90.6
		c0.76,0.02,2.03-0.25,3.25-0.76c3.47-1.44,5.98-3.94,7.82-7.17c0.68-1.19,1.21-2.44,1.27-3.84c0.08-1.96-0.63-3.67-1.74-5.23
		c-1.31-1.84-3.01-3.28-4.92-4.46c-3.96-2.46-8.21-4.08-12.91-4.35c-2.44-0.14-4.28,0.81-5.18,2.89c-0.46,1.07-0.85,2.25-0.92,3.39
		c-0.16,2.57-0.11,5.15-0.1,7.73c0,0.54,0.13,1.09,0.3,1.6c1.03,3.13,2.99,5.59,5.56,7.57C92.91,89.59,95.21,90.58,98.44,90.6z
		 M109.36,102.19c0,0.3-0.02,0.6,0,0.9c0.14,1.65,1.08,2.43,2.69,2.21c0.41-0.06,0.83-0.19,1.22-0.34c1.82-0.68,3.4-1.78,4.98-2.9
		c0.98-0.7,0.59-0.7,1.58,0.01c1.57,1.12,3.16,2.21,4.98,2.89c0.39,0.15,0.81,0.28,1.22,0.34c1.65,0.22,2.56-0.58,2.7-2.32
		c0.19-2.28-0.5-4.3-1.93-6.05c-1.69-2.07-3.43-4.09-5.16-6.12c-1.44-1.69-3.79-1.69-5.22,0c-1.71,2-3.41,4.02-5.09,6.05
		C110.06,98.39,109.33,100.16,109.36,102.19z"/>
	<path class="st0" d="M162.68,103.05c1.38-1.46,2.45-3.03,3.23-4.79c1.13-2.54,1.74-5.19,1.6-7.98c-0.07-1.4-0.3-2.79-0.95-4.05
		c-0.64-1.25-0.78-2.51-0.43-3.85c0.2-0.76,0.36-1.54,0.54-2.36c1.61,0.75,3.16,1.47,4.71,2.19c3.3,1.54,6.59,3.08,9.89,4.61
		c1.81,0.84,3.73,0.52,5.21-0.84c6.59-6.04,17.45-3.24,20.22,5.25c1.47,4.51,0.61,8.61-2.4,12.26c-0.41,0.5-0.91,0.94-1.41,1.36
		c-2.28,1.91-3.43,4.34-3.45,7.31c-0.04,5.4-3.05,9.81-8.05,11.8c-6.29,2.51-13.72-0.77-16.11-7.12c-0.61-1.63-0.89-3.3-0.86-5.03
		c0.05-2.15-0.91-3.69-2.86-4.6c-2.7-1.26-5.41-2.52-8.11-3.78C163.23,103.32,163,103.21,162.68,103.05z"/>
	<path class="st0" d="M71.42,80.04c0.42,2.11,1.25,4.1,0.11,6.26c-1.02,1.92-1.12,4.07-0.9,6.21c0.41,3.97,1.92,7.46,4.65,10.4
		c0.02,0.02,0.03,0.06,0.08,0.15c-0.21,0.11-0.41,0.23-0.63,0.33c-2.75,1.29-5.5,2.57-8.25,3.86c-1.93,0.91-2.87,2.44-2.82,4.56
		c0.07,3.57-1.07,6.68-3.57,9.23c-2.66,2.71-5.92,3.95-9.72,3.73c-5.36-0.31-10.32-4.17-11.47-10.05c-0.23-1.17-0.19-2.39-0.31-3.58
		c-0.25-2.56-1.42-4.63-3.39-6.26c-5.66-4.71-6.03-13.38-0.75-18.52c2.89-2.81,6.39-3.96,10.38-3.48c2.57,0.31,4.84,1.39,6.78,3.13
		c1.21,1.08,2.63,1.56,4.21,1.17c0.88-0.22,1.71-0.66,2.54-1.04c4.21-1.95,8.42-3.92,12.63-5.89C71.1,80.17,71.22,80.12,71.42,80.04
		z"/>
	<path class="st0" d="M166.63,35.63c1.03-0.48,2-0.94,2.97-1.4c0.66-0.31,1.32-0.6,1.97-0.91c1.96-0.93,2.92-2.48,2.87-4.65
		c-0.07-2.91,0.69-5.58,2.47-7.89c3.03-3.92,7.06-5.6,11.98-4.87c5.17,0.77,9.25,4.67,10.26,9.71c0.18,0.91,0.27,1.85,0.29,2.78
		c0.05,2.89,1.13,5.29,3.34,7.15c2.03,1.71,3.43,3.82,4.16,6.38c1.91,6.7-2.31,13.91-9.1,15.47c-4.2,0.96-7.95,0.01-11.22-2.78
		c-1.75-1.49-3.59-1.79-5.68-0.79c-3.14,1.5-6.3,2.95-9.46,4.42c-0.14,0.06-0.28,0.11-0.52,0.19
		C171.46,50.46,170.26,42.85,166.63,35.63z"/>
	<path class="st0" d="M71.45,35.64c-3.6,7.19-4.82,14.79-4.32,22.79c-0.2-0.06-0.33-0.08-0.45-0.13c-3.22-1.5-6.44-3-9.65-4.51
		c-1.94-0.91-3.75-0.71-5.37,0.7c-2.66,2.32-5.73,3.47-9.25,3.25c-6.16-0.38-11.06-5.14-11.62-11.28c-0.4-4.32,1.09-7.93,4.37-10.75
		c2.32-2,3.52-4.47,3.5-7.52c-0.03-5.74,4-10.94,9.97-12.21c6.3-1.34,12.78,2.55,14.51,8.72c0.38,1.34,0.53,2.7,0.52,4.08
		c-0.02,2.08,0.9,3.59,2.79,4.49c1.48,0.71,2.98,1.39,4.46,2.09C71.07,35.44,71.24,35.53,71.45,35.64z"/>
</g>
</svg>
