<?xml version="1.0" encoding="utf-8"?>
<!-- Generator: Adobe Illustrator 23.0.3, SVG Export Plug-In . SVG Version: 6.00 Build 0)  -->
<svg version="1.1" id="Vrstva_1" xmlns="http://www.w3.org/2000/svg" xmlns:xlink="http://www.w3.org/1999/xlink" x="0px" y="0px"
	 viewBox="0 0 4096 1024" style="enable-background:new 0 0 4096 1024;" xml:space="preserve">
<style type="text/css">
	.st0{fill:#FFFFFF;}
</style>
<g>
	<path class="st0" d="M408.96,318.6l-232.1,0v70.75h232.12c30.09,0.88,55.9,14.09,79.14,40.62c23.95,26.47,35.59,55.07,35.59,87.42
		l0.01,0.51c0.83,32.29-10.19,61.03-33.46,87.62c-23.5,25.98-49.62,39.03-79.84,39.9H176.86v70.75h233.11
		c51.11,0,95.87-21.55,133.01-63.99c35.21-39.95,52.53-85.45,51.47-135.23c-1.06-49.4-18.82-94.33-52.94-133.7
		C504.44,341.43,459.84,319.68,408.96,318.6z"/>
	<path class="st0" d="M1793.5,523.19c-24.22-26.46-58.86-40.44-102.94-41.53l-62.71-0.01c-8.59,0-16.86,0.12-24.63,0.37
		c-6.84,0.23-13.46,0.35-19.71,0.35h-20.03c-20.03,0-34.84-5.58-45.27-17.05l-0.4-0.43c-11.2-11.62-11.98-21.01-11.6-27.05
		l0.04-1.26c0-10.13,4.11-19.48,12.43-28.47c11.9-12.62,30.06-18.75,55.53-18.75h226.68V318.6h-220.96l-8.83,0
		c-43.53,0.55-78.38,14.17-103.82,40.74c-20.99,22.69-31.69,48.54-31.79,76.83c-1.06,29.28,9.51,55.53,31.29,77.87
		c24.79,25.93,57.57,39.07,97.41,39.07h19.31c6.63,0,13.71-0.12,21.02-0.36c7.2-0.23,15.04-0.35,23.32-0.35l64.73,0
		c21.97,0.38,37.77,6.36,48.55,18.56c7.68,8.36,11.81,18.16,12.6,29.94c-0.14,10.06-4.11,19.34-11.97,28.2
		c-9.96,10.98-23.13,16.32-40.25,16.32h-234.55v70.75h236.99l0.3-0.01c36.95-1.12,67.23-14.38,89.91-39.34
		c20.12-21.84,30.32-47.81,30.32-77.2l-0.02-0.79C1823.33,569.77,1812.9,544.31,1793.5,523.19z"/>
	<path class="st0" d="M2030.5,389.35h165.9v133.04c0,42.81-0.24,82.9-0.71,119.43v74.35h70.76v-74.23l0.71-119.55V389.35h165.19
		V318.6H2030.5V389.35z"/>
	<rect x="2639.79" y="318.6" class="st0" width="70.75" height="397.57"/>
	<path class="st0" d="M3248.61,355.1c-40.12-31.77-85.37-47.9-134.5-47.94c-50.19-0.98-94.82,15.34-132.52,48.32
		c-40.6,34.18-61.99,78.35-63.6,131.26l-0.01,229.43h70.75V489.03c0.86-32.39,13.55-58.61,38.74-80.15
		c25.44-21.68,53.57-31.85,85.92-30.98l0.51,0.01c33.79,0,63.4,10.5,90.68,32.25c27.54,21.47,40.93,46.72,40.93,77.2v228.82h70.75
		V486.63C3316.27,434.09,3293.45,389.79,3248.61,355.1z"/>
	<path class="st0" d="M3848.39,318.6v20c0,34.47-13.06,63.07-39.9,87.43c-25.84,23.35-54.57,34.31-87.63,33.46l-0.51-0.01
		c-32.06,0-60.76-11.03-87.73-33.72c-26.79-23.97-40.21-52.63-41.03-87.63l-0.46-19.53h-70.66l0.38,20.38
		c1.06,56.24,23.12,103.31,65.46,139.82c28.88,25.28,61.88,41.41,98.31,48.11v189.98h70.75V527.31
		c37.32-6.07,70.82-22.37,99.81-48.58c42.45-36.7,63.97-83.84,63.97-140.13v-20H3848.39z"/>
	<path class="st0" d="M866.26,382.57c-35.21,39.95-52.53,85.44-51.47,135.23c1.06,49.4,18.82,94.33,52.94,133.7
		c37.07,41.82,81.66,63.58,132.54,64.66l232.11,0v-70.75h-232.12c-30.09-0.88-55.9-14.09-79.14-40.62
		c-23.95-26.47-35.59-55.07-35.59-87.42l-0.01-0.51c-0.83-32.29,10.19-61.03,33.46-87.62c23.5-25.98,49.62-39.03,79.84-39.9h233.55
		v-70.75H999.27C948.16,318.59,903.39,340.13,866.26,382.57z"/>
	<circle class="st0" cx="1051.18" cy="517.38" r="40"/>
</g>
</svg>
